<svg xmlns="http://www.w3.org/2000/svg" width="32" height="32" viewBox="0 0 32 32" role="img" aria-label="USDC"><g fill="none" fill-rule="evenodd"><circle cx="16" cy="16" r="16" fill="#2775CA"/><path fill="#FFF" d="M15.75 27.5C9.26 27.5 4 22.24 4 15.75S9.26 4 15.75 4 27.5 9.26 27.5 15.75A11.764 11.764 0 0 1 15.75 27.5zm-.7-16.11a2.58 2.58 0 0 0-2.45 2.47c0 1.21.74 2 2.31 2.33l1.1.26c1.07.25 1.51.61 1.51 1.22 0 .67-.66 1.15-1.56 1.15a1.6 1.6 0 0 1-1.6-.83.42.42 0 0 0-.4-.26h-.61a.27.27 0 0 0-.25.32 2.51 2.51 0 0 0 2.21 1.84v.86a.4.4 0 0 0 .4.39h.61a.4.4 0 0 0 .39-.39v-.85a2.62 2.62 0 0 0 2.56-2.55c0-1.27-.73-2-2.46-2.38l-.94-.22c-1-.24-1.51-.55-1.51-1.21 0-.66.58-1.13 1.45-1.13a1.42 1.42 0 0 1 1.49.92.4.4 0 0 0 .38.24h.56a.28.28 0 0 0 .27-.34 2.45 2.45 0 0 0-2.07-1.68v-.83a.4.4 0 0 0-.39-.39h-.61a.4.4 0 0 0-.4.39v.81zm-3.36 12a.4.4 0 0 0 .27-.5 7.59 7.59 0 0 1 0-13.72.4.4 0 0 0 .27-.5l-.13-.43a.41.41 0 0 0-.52-.26 8.79 8.79 0 0 0 0 16.85.41.41 0 0 0 .52-.26l.13-.42zm6.79-14.78a.4.4 0 0 0-.27.5 7.59 7.59 0 0 1 0 13.72.4.4 0 0 0-.27.5l.13.43a.41.41 0 0 0 .52.26 8.79 8.79 0 0 0 0-16.85.41.41 0 0 0-.52.26l-.13.42z"/></g></svg>
